<svg height="32" viewBox="0 0 45 32" width="45" xmlns="http://www.w3.org/2000/svg"><g fill="none" fill-rule="evenodd"><rect fill="#fff" height="32" rx="4" width="45"/><g fill-rule="nonzero" transform="translate(15.396988 7.640018)"><path d="m4.08863803 16.95776.2943-1.9322-.6556-.0158h-3.1306l2.1757-14.25814c.0068-.04318.0287-.08326.0607-.11177.0321-.02851.0731-.04415.116-.04415h5.2786c1.7526 0 2.96199997.37685 3.59329997 1.12077.296.34899.4845.71379.5758 1.11509.0957.4211.0973.9243.0039 1.538l-.0067.0446v.3933l.296.1734c.2492.1367.4474.2931.5993.4722.2532.2984.417.6777.4862 1.1272.0715.4624.0479 1.0128-.0692 1.6358-.1351.7166-.3535 1.3407-.6484 1.8514-.2711.4705-.6166.8609-1.027 1.1633-.3917.2874-.857.5055-1.3832.6451-.5099.1372-1.09129997.2065-1.72889997.2065h-.4108c-.2937 0-.579.1093-.803.3053-.2246.2001-.3731.4735-.4186.7724l-.0311.174-.52 3.4057-.0235.1249c-.0063.0396-.017.0593-.0328.0727-.014.0122-.0342.0204-.0539.0204z" fill="#28356a"/><path d="m12.970638 4.45946c-.0156.1041-.0337.2105-.0539.3198-.6961 3.6942-3.07779997 4.9704-6.11939997 4.9704h-1.5488c-.372 0-.6855.2791-.7434.6584l-1.0175 6.671c-.0377.2491.148.4735.3911.4735h2.7469c.3252 0 .6015-.2442.6528-.5758l.0269-.1442.5172-3.3923.0333-.186c.0506-.3327.3275-.5771.6527-.5771h.4108c2.66129997 0 4.74469997-1.1167 5.35369997-4.3485.2542-1.35.1226-2.4773-.5505-3.2701-.2036-.239-.4563-.4375-.7519-.5991z" fill="#298fc2"/><path d="m12.242138 4.15936c-.1064-.0321-.2161-.0611-.3287-.0873-.1131-.0256-.229-.0483-.3483-.0681-.4176-.0698-.8752-.1028-1.3653-.1028h-4.13739997c-.102 0-.1987.0237-.2853.0668-.1909.0948-.3326.2815-.367.5101l-.8802 5.762-.0252.168c.0579-.3793.3714-.6584.7434-.6584h1.5487c3.0417 0 5.42339997-1.2768 6.11949997-4.9704.0208-.1093.0383-.2157.0539-.3198-.1761-.0966-.3668-.1792-.5722-.2496-.0508-.0174-.1031-.0342-.1559-.0505z" fill="#22284f"/><path d="m5.41033803 4.47816c.0344-.2286.1761-.4153.367-.5094.0872-.0432.1833-.067.2853-.067h4.13739997c.4901 0 .9477.0332 1.3652.103.1194.0197.2352.0425.3484.0681.1126.026.2223.0552.3287.0871.0528.0163.1051.0333.1563.0501.2054.0703.3963.1536.5724.2496.2071-1.3652-.0017-2.2947-.7158-3.13638-.7874-.92672-2.2083-1.32328-4.02659997-1.32328h-5.2788c-.3713 0-.6882.27909-.7456.65903l-2.1986 14.40483c-.0434.2849.1693.542.4473.542h3.2589z" fill="#28356a"/></g></g></svg>