<svg height="32" viewBox="0 0 45 32" width="45" xmlns="http://www.w3.org/2000/svg"><g fill="none" fill-rule="evenodd"><rect fill="#fff" height="32" rx="4" width="45"/><g fill-rule="nonzero" transform="translate(9 8)"><path d="m13.9999671 14.9694156c-1.4828083 1.2662489-3.4063171 2.0305844-5.50819115 2.0305844-4.68990864 0-8.49177595-3.8055974-8.49177595-8.49998573 0-4.69438836 3.80186731-8.50001427 8.49177595-8.50001427 2.10187405 0 4.02538285.76437358 5.50819115 2.03056536 1.4829023-1.26619178 3.4063171-2.03056536 5.5081912-2.03056536 4.6899086 0 8.4918417 3.80562591 8.4918417 8.50001427 0 4.69438833-3.8019331 8.49998573-8.4918417 8.49998573-2.1018741 0-4.0252889-.7643355-5.5081912-2.0305844z" fill="#ed0006"/><path d="m13.9998732 14.9695108c1.8259197-1.5590238 2.9836505-3.8789576 2.9836505-6.46949653 0-2.5905389-1.1577308-4.91047276-2.9836505-6.46951551 1.4829023-1.26615372 3.4063171-2.03049876 5.5081912-2.03049876 4.6899086 0 8.4917477 3.80562591 8.4917477 8.50001427 0 4.69438833-3.8018391 8.49998573-8.4917477 8.49998573-2.1018741 0-4.0252889-.7643355-5.5081912-2.0304892z" fill="#f9a000"/><path d="m14.0000611 14.9695108c1.8257318-1.5590238 2.9835565-3.8788625 2.9835565-6.46940138 0-2.5905389-1.1578247-4.91037761-2.9835565-6.46947745-1.8258258 1.55909984-2.9835566 3.87893855-2.9835566 6.46947745 0 2.59053888 1.1577308 4.91037758 2.9835566 6.46940138z" fill="#ff5e00"/></g></g></svg>