<svg height="32" viewBox="0 0 45 32" width="45" xmlns="http://www.w3.org/2000/svg"><g fill="none" fill-rule="evenodd"><rect fill="#fff" height="32" rx="4" width="45"/><path d="m14.3337 21.144278h-2.7463l-2.05943-8.0878c-.09775-.372-.3053-.701-.6106-.856-.7619-.3895-1.60146-.6996-2.51735-.8559v-.3114h4.42408c.6106 0 1.0686.4677 1.1449 1.011l1.0685 5.834 2.745-6.845h2.67zm5.6453 0h-2.5936l2.1357-10.1111h2.5937zm5.4912-7.3101c.0763-.5445.5343-.8559 1.0685-.8559.8396-.0782 1.7542.0782 2.5174.4664l.4579-2.177c-.7632-.3114-1.6028-.4678-2.3647-.4678-2.5173 0-4.3491 1.4006-4.3491 3.3444 0 1.4787 1.2975 2.2551 2.2134 2.7229.9909.4664 1.3725.7778 1.2962 1.2441 0 .6996-.7633 1.011-1.5252 1.011-.9158 0-1.8317-.2332-2.67-.6227l-.4579 2.1783c.9159.3882 1.9068.5446 2.8226.5446 2.8227.0768 4.5768-1.3224 4.5768-3.4225 0-2.6448-3.5859-2.7998-3.5859-3.9658zm12.6631 7.3101-2.0594-10.1111h-2.2121c-.4579 0-.9159.3114-1.0685.7778l-3.8135 9.3333h2.67l.5329-1.4774h3.2806l.3053 1.4774zm-3.8897-7.3883.7619 3.8107h-2.1357z" fill="#172b85"/></g></svg>